Coordinates
version=1
nRows=13
nColumns=22
inDegrees=yes

Units are S.I. units (second, meters, Newtons, ...)
If the header above contains a line with 'inDegrees', this indicates whether rotational values are in degrees (yes) or radians (no).

endheader
time	pelvis_tilt	pelvis_list	pelvis_rotation	pelvis_tx	pelvis_ty	pelvis_tz	hip_flexion_r	hip_adduction_r	hip_rotation_r	knee_angle_r	ankle_angle_r	subtalar_angle_r	hip_flexion_l	hip_adduction_l	hip_rotation_l	knee_angle_l	ankle_angle_l	subtalar_angle_l	lumbar_extension	lumbar_bending	lumbar_rotation
      1.35000000	     -5.11838074	     -6.92602279	      0.73073326	     -1.03940247	      0.97539194	      0.12738661	      7.48363315	      7.29114131	     -4.85068550	    -15.33585646	     10.45880836	      0.94369440	      6.01010584	     -6.10598805	      6.90388252	    -10.14935197	     11.98521969	     -2.78795790	      3.24291881	      5.89755074	     -7.49295370
      1.36000000	     -5.13598279	     -6.93558182	      0.73548286	     -1.03929296	      0.97537559	      0.12708184	      7.48436985	      7.27979895	     -4.84951576	    -15.31788470	     10.45857764	      0.95352564	      6.03654804	     -6.09233172	      6.92581136	    -10.17279266	     11.98692272	     -2.80084800	      3.21516941	      5.88320299	     -7.46350736
      1.37000000	     -5.17353285	     -6.92937918	      0.73869969	     -1.03919737	      0.97532907	      0.12673907	      7.51144908	      7.24934089	     -4.82840856	    -15.30965317	     10.45575353	      0.99841549	      6.09925852	     -6.05671208	      6.94111461	    -10.22251427	     12.01480521	     -2.86683464	      3.20515996	      5.85504342	     -7.45636432
      1.38000000	     -5.21848926	     -6.93421790	      0.72266997	     -1.03908642	      0.97527425	      0.12640833	      7.55088601	      7.23007324	     -4.81328294	    -15.31053125	     10.46259270	      1.05700539	      6.16761022	     -6.03475269	      6.95374721	    -10.27688326	     12.02115245	     -2.94802460	      3.20005073	      5.84080515	     -7.41757385
      1.39000000	     -5.23588186	     -6.94212888	      0.71320133	     -1.03892066	      0.97525991	      0.12603012	      7.54791375	      7.21294779	     -4.80474307	    -15.29356073	     10.45772315	      1.06681971	      6.19739936	     -6.01424245	      6.97609805	    -10.31822911	     12.02797000	     -2.96126538	      3.16610822	      5.83578504	     -7.37944616
      1.40000000	     -5.25802123	     -6.94438920	      0.69418466	     -1.03874112	      0.97523914	      0.12563916	      7.54714513	      7.19027415	     -4.78222989	    -15.27405654	     10.44822374	      1.08321615	      6.24078811	     -5.98621199	      6.98705098	    -10.38202616	     12.05161500	     -2.98515527	      3.13484176	      5.82509655	     -7.33522753
      1.41000000	     -5.31037750	     -6.94339350	      0.64039617	     -1.03855738	      0.97517218	      0.12525017	      7.58492637	      7.16436810	     -4.72067942	    -15.27030644	     10.44469236	      1.13578767	      6.32489014	     -5.95528639	      6.93751733	    -10.47031057	     12.10297561	     -3.05508626	      3.13434337	      5.81872053	     -7.28530309
      1.42000000	     -5.33272372	     -6.95388915	      0.61405068	     -1.03833139	      0.97515165	      0.12480331	      7.57959235	      7.14592459	     -4.71270813	    -15.24729418	     10.44273475	      1.14945904	      6.36524544	     -5.93316162	      6.96360145	    -10.53500405	     12.10790370	     -3.06941889	      3.10271093	      5.82265900	     -7.22254222
      1.43000000	     -5.40180526	     -6.96533791	      0.54268973	     -1.03812699	      0.97506198	      0.12436946	      7.63470203	      7.13099489	     -4.64083144	    -15.24532608	     10.44546953	      1.22768057	      6.47837521	     -5.91172359	      6.90738305	    -10.65175415	     12.15919061	     -3.14669227	      3.11811838	      5.83557113	     -7.13693342
      1.44000000	     -5.41838704	     -6.97187295	      0.51237760	     -1.03787992	      0.97504380	      0.12384652	      7.61958150	      7.10482101	     -4.62454437	    -15.21859458	     10.43657061	      1.23991010	      6.52359516	     -5.87901817	      6.93652872	    -10.74132199	     12.18161979	     -3.15941654	      3.07683154	      5.84113203	     -7.08037624
      1.45000000	     -5.45897026	     -6.98182808	      0.44727772	     -1.03763707	      0.97497890	      0.12333028	      7.63333299	      7.08506620	     -4.55987423	    -15.19988103	     10.43001575	      1.27824938	      6.61688866	     -5.85000157	      6.88943152	    -10.88140680	     12.26420442	     -3.20189834	      3.05940426	      5.85634102	     -7.01332693
      1.46000000	     -5.49834814	     -6.99436219	      0.38810911	     -1.03738924	      0.97491857	      0.12276647	      7.64739770	      7.06440780	     -4.51174243	    -15.18390941	     10.42878796	      1.31063814	      6.70379191	     -5.82017088	      6.87780211	    -11.01152020	     12.31444849	     -3.23229975	      3.03922323	      5.87620399	     -6.92993463
      1.47000000	     -5.53622043	     -7.00671751	      0.32922600	     -1.03712603	      0.97485367	      0.12216848	      7.65792427	      7.04158417	     -4.46998125	    -15.16585163	     10.43169206	      1.33939630	      6.79154833	     -5.78753190	      6.86753066	    -11.14727608	     12.37061135	     -3.26012363	      3.01750484	      5.89717755	     -6.85030730
